<svg version="1.2" baseProfile="tiny-ps" xmlns="http://www.w3.org/2000/svg" viewBox="0 0 870 712" >
	<title>AdobeStock_265139567-ai</title>
	<style>
		tspan { white-space:pre }
		.shp0 { fill: #d6f0fe } 
		.shp1 { opacity: 0.302;fill: #a8bcff } 
		.shp2 { fill: #da97b8 } 
		.shp3 { opacity: 0.302;fill: #a6e7ff } 
		.shp4 { fill: #b0bcd8 } 
		.shp5 { fill: #3B82F6 } 
		.shp6 { opacity: 0.4;fill: #ffffff } 
		.shp7 { fill: #ffffff } 
		.shp8 { fill: #ffbec1 } 
		.shp9 { fill: #fa7071 } 
		.shp10 { fill: #0b1238 } 
		.shp11 { fill: #f5bfa6 } 
		.shp12 { fill: #dfe9ff } 
		.shp13 { fill: #3d4166 } 
		.shp14 { fill: #f5b29c } 
		.shp15 { fill: #2e3054 } 
		.shp16 { fill: #ffd7df } 
		.shp17 { fill: #b6d2f6 } 
		.shp18 { fill: #5c75c3 } 
		.shp19 { fill: #ecb49f } 
		.shp20 { mix-blend-mode: multiply;fill: #ecb49f } 
		.shp21 { fill: #d88a4f } 
		.shp22 { fill: #2a2b7c } 
		.shp23 { opacity: 0.302;fill: #ffffff } 
		.shp24 { opacity: 0.2;fill: #ffffff } 
		.shp25 { fill: #97b8da } 
		.shp26 { fill: #7ab6f6 } 
		.shp27 { fill: #f3a9b8 } 
		.shp28 { fill: #abc2f6 } 
		.shp29 { fill: #a2dff6 } 
		.shp30 { fill: #ffc5c0 } 
	</style>
	<g id="Layer 2">
		<path id="&lt;Path&gt;" class="shp0" d="M869.32 711.62L869.32 292.74C839.7 305.51 789.34 366.25 769.61 380.3C728.47 409.59 683.5 422.47 635.38 434.51C605.13 442.08 444.9 479.39 449.09 507.4C394.06 519.29 343.54 527.55 287.22 530.3C239.46 532.63 194.91 542.14 153.95 568.63C127.69 585.63 38.69 652.48 0.27 711.62L869.32 711.62Z" />
		<path id="&lt;Path&gt;" class="shp1" d="M848.61 395.52C848.61 468.86 789.16 528.31 715.83 528.31C642.47 528.31 583.02 468.86 583.02 395.52C583.02 322.17 642.47 262.72 715.83 262.72C789.16 262.72 848.61 322.17 848.61 395.52Z" />
		<g id="&lt;Group&gt;" style="opacity: 0.302">
			<path id="&lt;Path&gt;" class="shp2" d="M553.18 311.51C553.18 403.64 478.49 478.34 386.36 478.34C294.22 478.34 219.54 403.64 219.54 311.51C219.54 219.37 294.22 144.68 386.36 144.68C478.49 144.68 553.18 219.37 553.18 311.51Z" />
		</g>
		<path id="&lt;Path&gt;" class="shp3" d="M810.21 149.03C810.21 215.83 756.07 269.98 689.27 269.98C622.47 269.98 568.32 215.83 568.32 149.03C568.32 82.23 622.47 28.08 689.27 28.08C756.07 28.08 810.21 82.23 810.21 149.03Z" />
		<path id="&lt;Path&gt;" class="shp4" d="M754.15 531.46C754.15 535.38 661.68 538.56 547.6 538.56C433.54 538.56 341 535.38 341 531.46C341 527.54 433.54 524.36 547.6 524.36C661.68 524.36 754.15 527.54 754.15 531.46Z" />
		<g id="&lt;Group&gt;">
			<g id="&lt;Group&gt;">
				<path id="&lt;Path&gt;" class="shp5" d="M316.78 227.04L557.72 40.62L798.66 227.04L316.78 227.04Z" />
				<path id="&lt;Path&gt;" class="shp5" d="M707.6 204.75L645.27 204.75L645.27 75.94L707.6 75.94L707.6 204.75Z" />
				<g id="&lt;Group&gt;">
					<g id="&lt;Group&gt;">
						<path id="&lt;Compound Path&gt;" fill-rule="evenodd" class="shp5" d="M753.92 205.48L753.92 532.62L361.52 532.62L361.52 205.48L753.92 205.48ZM610.18 316.37C610.18 287.4 586.7 263.91 557.72 263.91C528.75 263.91 505.26 287.4 505.26 316.37L505.26 413.01L610.18 413.01L610.18 316.37Z" />
					</g>
				</g>
				<g id="&lt;Group&gt;">
					<path id="&lt;Path&gt;" class="shp5" d="M561.66 446.79L553.78 446.79L553.78 245.27L561.66 245.27L561.66 446.79Z" />
					<path id="&lt;Path&gt;" class="shp5" d="M456.96 317.85L456.96 309.96L658.48 309.96L658.48 317.85L456.96 317.85Z" />
					<path id="&lt;Path&gt;" class="shp5" d="M456.96 369.83L456.96 361.95L658.48 361.95L658.48 369.83L456.96 369.83Z" />
				</g>
			</g>
		</g>
		<path id="&lt;Path&gt;" class="shp6" d="M638.46 189.75C633.04 199.45 634.48 212.09 634.96 223.5C635.18 228.67 634.53 238.58 641.43 237.18C646.4 236.18 646.42 230.63 652.46 230.25C664.18 229.5 672.23 235.4 680.28 222.57C685.21 214.69 688.86 202.09 685.39 192.77C680.28 179.06 661.51 177.86 649.08 178.63C646.55 181.3 641.27 183.24 637.76 186L638.46 189.75Z" />
		<path id="&lt;Path&gt;" class="shp6" d="M417 245.75C415.91 240.03 409.41 197.37 422.05 212.17C424.46 215 423.15 219.97 428.46 218.22C430.87 217.42 432.8 210.94 433.52 209.04C436.38 201.59 438.02 194.92 444.02 189.05C450.7 198.01 449.29 211.88 456.13 220.87C457.06 220.89 457.92 220.99 458.87 220.89C459.66 219 463.71 209.07 465.17 208.4C470.19 206.11 470.5 214.31 471.04 217.96C471.77 222.88 472.29 228.34 473.08 233.17C473.68 236.76 476.66 245.23 474.79 248.79C471 255.99 453.46 255.39 446.25 256.09C437.36 256.95 423.9 258.91 418.5 251L417 245.75Z" />
		<path id="&lt;Path&gt;" class="shp1" d="M687.19 639.12C687.19 641.43 674.05 643.3 657.84 643.3C641.63 643.3 628.48 641.43 628.48 639.12C628.48 636.81 641.63 634.94 657.84 634.94C674.05 634.94 687.19 636.81 687.19 639.12Z" />
		<path id="&lt;Path&gt;" class="shp1" d="M653.79 637.98C653.79 641.11 625.38 643.66 590.33 643.66C555.27 643.66 526.84 641.11 526.84 637.98C526.84 634.85 555.27 632.3 590.33 632.3C625.38 632.3 653.79 634.85 653.79 637.98Z" />
		<path id="&lt;Path&gt;" class="shp1" d="M416.67 559.13C416.67 562.39 396 565.02 370.53 565.02C345.03 565.02 324.36 562.39 324.36 559.13C324.36 555.89 345.03 553.25 370.53 553.25C396 553.25 416.67 555.89 416.67 559.13Z" />
		<path id="&lt;Path&gt;" class="shp1" d="M296.78 634.73C296.78 639.23 270.22 642.88 237.45 642.88C204.69 642.88 178.11 639.23 178.11 634.73C178.11 630.23 204.69 626.57 237.45 626.57C270.22 626.57 296.78 630.23 296.78 634.73Z" />
		<g id="&lt;Group&gt;" style="opacity: 0.302">
			<path id="&lt;Path&gt;" class="shp2" d="M524.18 551.17C524.18 554.92 501.14 557.96 472.73 557.96C444.31 557.96 421.26 554.92 421.26 551.17C421.26 547.43 444.31 544.38 472.73 544.38C501.14 544.38 524.18 547.43 524.18 551.17Z" />
		</g>
		<g id="&lt;Group&gt;" style="opacity: 0.302">
			<path id="&lt;Path&gt;" class="shp2" d="M760.43 550.42C760.43 554.17 737.39 557.21 708.98 557.21C680.56 557.21 657.51 554.17 657.51 550.42C657.51 546.68 680.56 543.63 708.98 543.63C737.39 543.63 760.43 546.68 760.43 550.42Z" />
		</g>
		<g id="&lt;Group&gt;">
		</g>
		<g id="&lt;Group&gt;">
			<g id="&lt;Group&gt;">
				<path id="&lt;Path&gt;" class="shp7" d="M457.2 506.03C456.43 506.64 455.31 506.51 454.71 505.74C454.1 504.97 454.23 503.86 455 503.25L461.23 498.34C462 497.73 463.12 497.86 463.72 498.63C464.33 499.4 464.2 500.52 463.43 501.13L457.2 506.03Z" />
			</g>
			<g id="&lt;Group&gt;">
				<path id="&lt;Path&gt;" class="shp7" d="M455.98 501.7C455.43 500.97 454.44 500.91 453.79 501.55L448.01 507.34C447.36 507.99 446.83 509.28 446.83 510.19L446.83 532.35C446.83 533.27 447.58 534.02 448.5 534.02L465.42 534.02C466.34 534.02 467.1 533.27 467.1 532.35L467.1 517.93C467.1 517.01 466.64 515.66 466.08 514.93L455.98 501.7Z" />
			</g>
			<g id="&lt;Group&gt;">
				<path id="&lt;Path&gt;" class="shp8" d="M456.56 510.11C456.24 509.69 455.66 509.65 455.29 510.03L451.93 513.39C451.55 513.76 451.24 514.51 451.24 515.04L451.24 527.9C451.24 528.43 451.68 528.87 452.21 528.87L462.04 528.87C462.57 528.87 463.01 528.43 463.01 527.9L463.01 519.53C463.01 519 462.74 518.21 462.42 517.79L456.56 510.11Z" />
			</g>
			<path id="&lt;Path&gt;" class="shp9" d="M463.15 502.37C463.47 502.75 463.41 503.33 463.02 503.65L460.19 505.96C459.8 506.28 459.22 506.22 458.9 505.83L455.59 501.77C455.27 501.38 455.33 500.8 455.72 500.48L458.55 498.17C458.95 497.86 459.52 497.91 459.84 498.3L463.15 502.37Z" />
		</g>
		<g id="&lt;Group&gt;">
			<g id="&lt;Group&gt;">
				<path id="&lt;Path&gt;" class="shp10" d="M677.74 553.63L673.85 553.45L685.81 297.49L689.71 297.67L677.74 553.63Z" />
			</g>
			<g id="&lt;Group&gt;">
				<path id="&lt;Path&gt;" class="shp10" d="M741.1 551.34L729.24 297.67L733.14 297.49L745 551.16L741.1 551.34Z" />
			</g>
			<g id="&lt;Group&gt;">
				<g id="&lt;Group&gt;">
					<path id="&lt;Path&gt;" class="shp10" d="M736.6 444.35L682.68 444.35L682.68 440.45L736.6 440.45L736.6 444.35Z" />
				</g>
				<g id="&lt;Group&gt;">
					<path id="&lt;Path&gt;" class="shp10" d="M736.6 403.73L682.68 403.73L682.68 399.83L736.6 399.83L736.6 403.73Z" />
				</g>
				<g id="&lt;Group&gt;">
					<path id="&lt;Path&gt;" class="shp10" d="M736.6 363.1L682.68 363.1L682.68 359.2L736.6 359.2L736.6 363.1Z" />
				</g>
				<g id="&lt;Group&gt;">
					<path id="&lt;Path&gt;" class="shp10" d="M732.64 322.48L685.21 322.48L685.21 318.58L732.64 318.58L732.64 322.48Z" />
				</g>
				<g id="&lt;Group&gt;">
					<path id="&lt;Path&gt;" class="shp10" d="M740 484.97L679.25 484.97L679.25 481.07L740 481.07L740 484.97Z" />
				</g>
				<g id="&lt;Group&gt;">
					<path id="&lt;Path&gt;" class="shp10" d="M741.5 525.6L675.5 525.6L675.5 521.7L741.5 521.7L741.5 525.6Z" />
				</g>
			</g>
		</g>
		<path id="&lt;Path&gt;" class="shp7" d="M645.95 185.69C645.35 186.34 644.77 187.1 644.2 187.99C642.8 190.2 640 193.02 639.86 195.75C639.74 197.94 641.52 200.67 642.3 202.66C643.15 204.84 644.32 211.03 646.63 211.81C649.38 212.74 652.92 208.48 655 207.3C658.13 205.53 662.47 205.23 666 205.76C669.05 206.21 673.5 208.34 676.26 205.75C678.44 203.72 677.81 198.11 677.25 195.26C676.87 193.33 676.64 189.66 675.35 188.1C673.73 186.12 670 186.18 667.84 185.04C664.82 183.46 663.66 182.74 660.03 182.4C654.02 181.83 649.65 181.64 645.95 185.69Z" />
		<g id="&lt;Group&gt;">
			<g id="&lt;Group&gt;">
				<g id="&lt;Group&gt;">
					<path id="&lt;Path&gt;" class="shp11" d="M737.55 252.14C745.33 250.02 751.57 279.87 753.56 284.89C757.65 296.03 764.1 311.06 766.2 321.43C762 322.6 762.52 322.63 758.54 324.18C753.15 311.66 750.78 304.3 745.33 296.04C741.05 289.55 738.98 282.76 733.01 278.32L737.55 252.14Z" />
				</g>
				<path id="&lt;Path&gt;" class="shp12" d="M731.67 248.24C737.8 247.57 742.41 250.79 745.5 257.9C748.58 265.01 751.19 271.4 753.32 277.08C748.72 280.13 745.12 285.19 742.52 292.25L733.53 280.44C734.02 260.41 733.33 249.49 731.46 247.68L731.67 248.24Z" />
				<path id="&lt;Path&gt;" class="shp11" d="M729.92 231.37C721.16 236.53 728.23 251.03 731.76 258.11C725.04 257.03 717.73 255.6 710.89 256.37C710.69 248.02 712.38 236.66 709.96 230.52L729.92 231.37Z" />
				<path id="&lt;Path&gt;" class="shp7" d="M704.82 248.05C701.18 250.47 698.36 254.76 697.77 258.5C696.46 266.71 699.73 273.92 700.53 281.86C700.82 284.7 701.42 287.27 702.09 290.15C703.57 296.52 704.62 302.84 703.5 309.25C700.79 324.75 715.41 332.83 729.1 322.44C735.69 317.44 732.68 310.9 734.74 303.63C736.9 296.02 740.43 288.88 742.52 281.25C744.55 273.8 744.32 267.28 743.49 259.75C743.05 255.74 741.51 252.89 739.3 249.76C736.17 245.31 731.96 245.22 727.5 245.94C725.18 246.32 725.8 246.91 723.46 247.22C721.04 247.54 715.68 247.55 713.5 246.69C710.54 245.53 707.46 246.29 704.82 248.05Z" />
				<path id="&lt;Path&gt;" class="shp13" d="M732.88 245.44C736.46 272.45 728.08 294.64 707.75 311.99L712.21 312.81C729.45 297.8 737.08 275.53 735.13 246L732.88 245.44Z" />
				<path id="&lt;Path&gt;" class="shp13" d="M708.31 246.37C721.56 269.87 727.88 291.12 727.25 310.12L730.37 310.94C729.42 288.27 722.67 266.4 710.12 245.31L708.31 246.37Z" />
				<g id="&lt;Group&gt;">
					<path id="&lt;Path&gt;" class="shp11" d="M719.68 235.95C713.93 243.53 702.17 234.4 702.44 228.04C702.8 219.87 705.89 213.96 711.69 210.3C718 203.39 720.93 203.04 727.06 205.5C733.47 210.84 731.01 220.99 719.68 235.95Z" />
				</g>
				<path id="&lt;Path&gt;" class="shp14" d="M702.17 383.75C704.64 389.3 706.94 394.88 708.98 400.49C703.38 401.71 694.51 401.32 689.38 398.73C690.62 394.29 696.12 393.83 699.85 394.25C698.17 390.94 696.09 387.62 693.79 384.34L702.17 383.75Z" />
				<path id="&lt;Path&gt;" class="shp14" d="M735.35 372.14C733.8 397.95 733.37 424.42 728.83 449.25C723.37 447.46 715.93 442.63 712.8 437.79C716.14 434.6 721.11 437 724.11 439.25C724.81 427.84 723.72 414.16 721.64 402.92C720.19 395.04 722.63 374.69 720.11 366.66L735.35 372.14Z" />
				<g id="&lt;Group&gt;">
					<path id="&lt;Path&gt;" class="shp15" d="M697.38 394.14C697.48 394.19 697.7 394.2 697.89 394.25C697.74 394.19 697.57 394.15 697.38 394.14Z" />
					<path id="&lt;Path&gt;" class="shp15" d="M708.08 396.08C700.3 397.35 696.33 397.27 696.17 395.82C696.03 394.55 696.57 394.27 697.02 394.25C693.78 394.33 690.31 395.31 689.35 398.69C693.79 401.59 700.34 402.19 708.98 400.49C708.94 399.79 708.85 399.26 708.71 398.89L708.08 396.08Z" />
				</g>
				<g id="&lt;Group&gt;">
					<path id="&lt;Path&gt;" class="shp15" d="M722.21 437.91C722.27 438 722.46 438.13 722.6 438.27C722.5 438.13 722.36 438.01 722.21 437.91Z" />
					<path id="&lt;Path&gt;" class="shp15" d="M730.12 444.83C723.12 442.18 719.93 440.17 720.54 438.81C721.07 437.61 721.7 437.64 722.1 437.87C719.19 436.25 715.58 435.3 712.98 437.81C716.08 442.64 724.36 448.17 729.8 449.96C729.91 449.36 730.12 448.99 730.44 447.72L730.12 444.83Z" />
				</g>
				<path id="&lt;Path&gt;" class="shp13" d="M702.88 262.87C702.63 289.37 704.38 305.25 708.13 310.5L704.75 309C697.5 286.25 695.38 269.87 698.38 259.87L702.88 262.87Z" />
				<path id="&lt;Path&gt;" class="shp13" d="M704.66 307.44C680.75 329.32 668.31 342.5 667.35 346.99C666.4 351.48 676.22 366.64 696.82 392.47L707.7 389.91L689.12 353.08L714.12 341.07C718.45 399.89 720.56 430.52 720.45 432.96C720.27 436.6 734.37 436.09 734.88 433.6C735.39 431.1 747.87 347.57 733.81 309.84C718.56 310.5 708.84 309.7 704.66 307.44Z" />
				<path id="&lt;Path&gt;" class="shp15" d="M735.32 215.2C736.91 222.32 733.59 234.11 727.19 238.16C716.15 245.18 711.52 230.67 712.66 222.31C719.29 220.53 712.55 217.97 709.63 217.88C705.74 217.75 703.04 217.7 702.59 212.93C702.34 210.35 706.56 205.24 709.3 208.24C706.54 205.22 710.87 201.73 713.82 201.24C716.92 200.73 724.86 203.22 727.84 204.48C732.07 206.26 734.38 211 735.32 215.2Z" />
			</g>
			<g id="&lt;Group&gt;">
				<path id="&lt;Path&gt;" class="shp11" d="M658.25 207.75C657 213.25 665.67 233.86 672.14 240.45C676.53 244.94 708.9 273.44 709.25 255.19C709.44 244.83 692.75 241.4 686.38 235.31C682.12 231.24 676.58 223.34 672.54 219.14C668.48 214.9 668.77 210.51 665.95 205.48C664.84 205.94 662.28 206.69 658.25 207.75Z" />
			</g>
			<path id="&lt;Path&gt;" class="shp12" d="M707.63 247.25L689.63 236C682.8 242.5 680.8 248.5 683.63 254C696.79 263.33 705.21 265.75 708.88 261.25C712.54 256.75 712.13 252.08 707.63 247.25Z" />
		</g>
		<path id="&lt;Path&gt;" class="shp1" d="M284.75 633.75C273.65 641.19 261.42 656.26 283.23 659.27C291.9 660.46 296.23 655.25 301.96 653.96C306.3 652.99 310.45 655.54 314.75 654.75C318.71 654.03 323.01 651.74 316.34 650.08C321.98 646.67 350.57 648.14 347.77 634.48C345.75 624.63 316.46 626.04 309.5 629.25L284.75 633.75Z" />
		<path id="&lt;Path&gt;" class="shp9" d="M669.44 212.06C664.63 215.27 660.56 216.87 657.24 216.87C656.73 211.05 654.2 205.98 652.8 200.44C652.32 198.55 651.39 196.79 650.75 195.01C649.73 192.18 647.36 188.88 647.55 185.71C649.89 186.09 651.73 191.91 653.32 193.62C653.58 191.12 650.99 179.61 652.64 179.51C654.29 179.42 655.09 187.32 656.82 190.39C656.83 188.35 657.2 186.48 657.48 184.56C657.71 183.05 657.65 178.85 658.94 179.08C660.22 179.31 659.57 183.62 659.73 185.27C659.85 186.52 659.57 189.12 660.54 189.93C661.09 187.33 662.76 180.33 663.93 180.46C665.11 180.59 664.11 185.82 663.6 188.38C663.13 190.76 662.8 193.34 662.95 195.88C664 195.54 665.5 192.36 666.13 191.39C666.67 191.15 667.26 190.85 667.89 190.96C668.13 193.86 666.11 196.21 665.66 198.98C665.42 200.51 665.37 201.9 665.83 203.41C666.08 204.19 669.65 211.91 669.44 212.06Z" />
		<path id="&lt;Path&gt;" class="shp9" d="M754.63 320C755.47 319.19 757.1 317.85 759.5 316C761.9 314.15 763.78 313.15 765.13 313C765.54 317.17 766.92 320.59 769.25 323.25C772.75 327.25 776 340 775.5 341.75C775 343.5 773.13 339.25 769.38 333.75C772.79 339.42 773.92 342.67 772.75 343.5C771 344.75 765.75 335.25 763.75 331.25C764.16 334.67 763.87 336.79 762.88 337.63C761.13 336.96 760.17 334.87 760 331.37C759.83 327.87 758.04 324.08 754.63 320Z" />
		<path id="&lt;Path&gt;" class="shp9" d="M772.63 333.88C774.87 338.38 776.29 340.54 776.87 340.38C777.75 340.13 776.5 331.25 770.88 327.13C767.13 324.38 767.71 326.63 772.63 333.88Z" />
		<g id="&lt;Group&gt;">
			<g id="&lt;Group&gt;">
				<g id="&lt;Group&gt;">
					<path id="&lt;Path&gt;" class="shp7" d="M496.56 509.79C496.56 510.36 496.02 510.82 495.35 510.82L489.65 510.82C488.98 510.82 488.44 510.36 488.44 509.79L488.44 507.72C488.44 507.15 488.98 506.68 489.65 506.68L495.35 506.68C496.02 506.68 496.56 507.15 496.56 507.72L496.56 509.79Z" />
				</g>
				<g id="&lt;Group&gt;">
					<path id="&lt;Path&gt;" class="shp8" d="M488.79 509.79C485.53 528.8 483.79 538.83 483.56 539.86C483.22 541.38 484.15 543.57 492.28 543.65C492.35 543.65 492.42 543.65 492.5 543.65C492.57 543.65 492.65 543.65 492.72 543.65C500.85 543.57 501.78 541.38 501.44 539.86C501.21 538.83 499.58 528.8 496.56 509.79L488.79 509.79Z" />
				</g>
				<g id="&lt;Group&gt;">
					<path id="&lt;Path&gt;" class="shp16" d="M496.56 509.79L493.5 509.79L493.33 543.63C500.89 543.45 501.77 541.33 501.44 539.86C501.21 538.83 499.58 528.8 496.56 509.79Z" />
				</g>
				<g id="&lt;Group&gt;">
					<path id="&lt;Path&gt;" class="shp8" d="M494.71 509.79L490.63 509.79L487.26 543.2C488.51 543.46 490.14 543.63 492.28 543.65C492.35 543.65 492.42 543.65 492.5 543.65C492.57 543.65 492.65 543.65 492.72 543.65C494.86 543.63 496.49 543.46 497.74 543.2L494.71 509.79Z" />
				</g>
			</g>
			<g id="&lt;Group&gt;">
				<path id="&lt;Path&gt;" class="shp13" d="M496.3 507.12L496.54 505.07C498.19 506.79 500.9 507.47 503.49 506.59C503.95 506.43 504.38 506.24 504.78 506C505.26 505.81 505.71 505.57 506.12 505.3C503.27 505.73 500.51 504.71 498.93 502.69L502.72 499.62L501.5 497.1L490.26 500.7L490.09 500.73C490.05 500.75 489.62 502.89 488.8 507.16L496.3 507.12Z" />
			</g>
		</g>
		<g id="&lt;Group&gt;">
			<path id="&lt;Path&gt;" class="shp9" d="M439.45 503.85L444.12 534.95C444.53 537.17 445.66 538.83 446.64 538.65L448.66 538.28C449.64 538.1 450.1 536.15 449.7 533.93L443.05 503.19L439.45 503.85Z" />
			<path id="&lt;Path&gt;" class="shp13" d="M424.36 487.02C430.26 487.45 432.14 495.11 432.94 498.64C433.75 502.17 435.61 505.81 441.16 504.8L441.78 504.68C447.33 503.67 447.78 499.6 447.29 496.02C446.79 492.43 445.83 484.59 451.19 482.1L451.35 481.88C451.12 480.63 449.09 479.84 446.11 479.6C445.09 480.91 443.81 483.05 443.8 485.52C443.14 483.43 442.88 481.44 443.02 479.54C441.17 479.6 439.12 479.82 436.98 480.21C434.54 480.65 432.31 481.27 430.4 481.96C431.3 482.96 432.45 484.6 432.68 486.71C431.31 485.02 429.81 483.75 428.18 482.89C425.49 484.17 423.9 485.62 424.13 486.86L424.36 487.02Z" />
			<path id="&lt;Path&gt;" class="shp7" d="M432.86 498.27C432.89 498.4 432.92 498.53 432.94 498.64L433.13 498.96C433.22 498.91 441.17 494.17 447.37 496.81C447.34 496.54 447.32 496.28 447.29 496.02C441.1 493.62 433.75 497.74 432.86 498.27Z" />
		</g>
		<g id="&lt;Group&gt;">
			<path id="&lt;Path&gt;" class="shp13" d="M487.42 535.5L487.42 507.91C487.42 505.86 485.75 504.19 483.69 504.19C482.22 504.19 481.14 503.11 481.14 501.77L481.14 498.16C481.14 496.83 480.06 495.75 478.72 495.75L473.17 495.75C471.84 495.75 470.76 496.83 470.76 498.16L470.76 501.77C470.76 503.11 469.67 504.19 468.34 504.19C466.14 504.19 464.47 505.86 464.47 507.91L464.47 535.5L487.42 535.5Z" />
			<g id="&lt;Group&gt;">
				<path id="&lt;Path&gt;" class="shp8" d="M481.14 499.31L481.14 498.16C481.14 497.29 480.64 496.55 479.94 496.13L471.96 496.13C471.25 496.55 470.76 497.29 470.76 498.16L470.76 499.31L481.14 499.31Z" />
			</g>
			<path id="&lt;Path&gt;" class="shp12" d="M480.63 497.13L480.63 492.67C480.63 491.64 479.8 490.8 478.76 490.8L473.13 490.8C472.1 490.8 471.26 491.64 471.26 492.67L471.26 497.13L480.63 497.13Z" />
			<path id="&lt;Path&gt;" class="shp12" d="M482.51 529.13L469.38 529.13L469.38 507L482.51 507L482.51 529.13Z" />
		</g>
		<path id="&lt;Path&gt;" class="shp9" d="M510.57 517.6C503.26 541.79 500.06 553.31 500.98 552.16L459.86 552.16L484.53 552.16L443.41 552.16C444.33 553.31 441.13 541.79 433.82 517.6L510.57 517.6Z" />
		<g id="&lt;Group&gt;">
			<path id="&lt;Path&gt;" class="shp16" d="M434.32 519.25C434.55 520.03 434.86 521.05 435.22 522.25L509.17 522.25C509.53 521.05 509.84 520.03 510.07 519.25L434.32 519.25Z" />
		</g>
		<g id="&lt;Group&gt;">
			<path id="&lt;Path&gt;" class="shp8" d="M470.29 517.49C464.8 518.85 462.29 524.27 462.75 533.75L443.56 536.46C436.25 525.62 435.8 519.07 442.19 516.81C457.27 515.46 466.63 515.69 470.29 517.49Z" />
		</g>
		<path id="&lt;Path&gt;" class="shp12" d="M463.29 516.24C457.8 517.6 455.29 523.02 455.75 532.5L436.56 535.21C429.25 524.37 428.8 517.82 435.19 515.56C450.27 514.21 459.63 514.44 463.29 516.24Z" />
		<g id="&lt;Group&gt;">
			<path id="&lt;Path&gt;" class="shp17" d="M262.96 427.83C268.46 429.19 273.41 439.74 275 443.5C277.13 448.52 283.59 473.69 272.5 474C265.8 474.19 260.24 461.34 258.12 456.83C255.02 450.23 252.09 436.87 257.08 430.5C259.03 428.02 261.03 427.36 262.96 427.83Z" />
			<path id="&lt;Path&gt;" class="shp7" d="M323.59 621.45C335.24 624.32 341.19 626.97 341.43 629.4C341.67 631.84 326.16 639.34 294.9 651.91C286.06 648.89 280.57 645.64 278.44 642.17C275.24 636.96 314.86 623.4 323.59 621.45Z" />
			<path id="&lt;Path&gt;" class="shp9" d="M320.66 622.96C329.86 625.24 334.56 627.35 334.74 629.32C334.93 631.28 322.64 637.37 297.88 647.59C290.9 645.18 286.57 642.58 284.89 639.79C282.38 635.6 313.75 624.56 320.66 622.96Z" />
			<g id="&lt;Group&gt;">
				<path id="&lt;Path&gt;" class="shp18" d="M267.41 626.31C267.71 631.15 275.67 633.16 278.14 636.92C275.58 637.93 266.6 637.48 264.11 635.82C260.66 633.53 263.23 627.77 259.24 624.46L267.41 626.31Z" />
				<path id="&lt;Path&gt;" class="shp18" d="M218.07 624.82C217.81 628.56 219.15 632.23 218.93 636.09C213.01 636.88 208.04 638 201.95 637.69C203.37 634.16 206.5 633.5 209.75 631.39C214.99 627.99 212.49 625.63 214.37 620.77L218.07 624.82Z" />
				<path id="&lt;Path&gt;" class="shp13" d="M257.81 493.16L269 627L258 628L238.5 531.5L220.91 629.67L211.5 629.02C211.02 588.37 210.9 561.74 211.14 549.11C211.5 530.17 210.42 503.86 218.73 492.62C237.09 497.19 250.11 497.37 257.81 493.16Z" />
				<path id="&lt;Path&gt;" class="shp19" d="M230.15 427.98C230.87 427.8 231.74 427.61 232.76 427.33C237.04 426.15 239.15 424.22 241.12 420.57C241.66 419.56 243.78 411.8 244.64 411.65C247.93 411.08 253.31 409.91 255.73 412.45C258.24 415.09 257.66 422 258.92 425.34C259.6 427.16 261.42 428.44 262.16 430.09C265.09 436.59 257.87 447.27 255.68 453.33C254.25 457.28 253.12 464.44 248.6 466.56C238.7 471.21 232.27 449 230.74 444.01C229.66 440.52 227.94 437.09 227.45 433.48C226.89 429.21 227.65 428.62 230.15 427.98Z" />
				<path id="&lt;Path&gt;" class="shp20" d="M258.97 425.81C258.85 425.4 258.71 425.13 258.61 424.83C257.49 421.52 258.01 414.68 255.78 412.07C254.18 410.22 251.17 410.36 248.53 410.79C247.43 412.34 246.15 414.33 245.32 415.58C245.58 416.19 245.9 416.82 246.28 417.47C248.92 421.94 254.22 426.76 258.97 425.81Z" />
				<path id="&lt;Path&gt;" class="shp19" d="M246.79 417.38C246.12 416.68 245.54 415.97 245.1 415.29C241.78 410.22 245.45 399 248.4 394.11C251.71 388.64 256.47 387 261.65 388.19C274.17 391.07 270.62 414.76 262.22 421.68C257.88 425.26 250.7 421.46 246.79 417.38Z" />
				<path id="&lt;Path&gt;" class="shp7" d="M256.2 416.12C258.69 418.43 261.67 418.76 265.15 417.11C261.98 423.17 259 422.84 256.2 416.12Z" />
				<path id="&lt;Path&gt;" class="shp15" d="M242.99 411.94C241.77 405.15 239.75 400.64 240.54 394.57C241.41 387.87 248.78 382.92 255.24 383.19C260.62 383.42 266.96 386.9 270.46 391.1C272.35 393.36 273.69 396.08 273.21 399.16C272.52 403.55 271.17 404.15 268.72 404.35C268.1 404.4 265.17 403.56 264.7 403.3C265.46 410.27 256.81 404.24 254.43 403.93C249.3 403.28 247.72 408.79 244.63 411.54L242.99 411.94Z" />
				<path id="&lt;Path&gt;" class="shp12" d="M260.43 505.95C256.78 505.84 280.58 432.7 260.06 427.22C262.14 431.38 258.78 433.63 250 434C236.86 434.54 236.63 425.82 236.63 425.76C236.59 424.06 222.27 428.74 221.28 429.53C211.72 437.19 221.08 455.86 218.89 467.43C216.63 479.35 211.99 492.65 212.09 504.85C217.87 503.26 225.62 502.99 235.33 504.04C249.9 505.64 260.43 505.95 260.43 505.95Z" />
			</g>
			<path id="&lt;Path&gt;" class="shp13" d="M229.79 425.86C232.75 432.82 233.8 439.1 232.94 444.71L235.74 445.38C236.83 436.42 235.86 429.94 232.83 425.95L229.79 425.86Z" />
			<path id="&lt;Path&gt;" class="shp13" d="M233.05 443.75C232.89 473.96 226.7 494.55 214.5 505.51L252.29 508.35C258.2 478.29 261.33 457.78 261.66 446.83L233.05 443.75Z" />
			<g id="&lt;Group&gt;">
				<path id="&lt;Path&gt;" class="shp9" d="M306.5 633.5C305.89 633.5 305.31 633.12 305.09 632.51L233.18 435.9C232.89 435.12 233.29 434.26 234.07 433.97C234.85 433.69 235.71 434.09 235.99 434.87L307.91 631.48C308.19 632.26 307.79 633.12 307.02 633.41C306.85 633.47 306.67 633.5 306.5 633.5Z" />
			</g>
			<path id="&lt;Path&gt;" class="shp14" d="M229.26 475.64C235.89 472.85 259.19 477.12 252.39 463.1C249.36 456.85 243.97 464.05 239.39 465.71C234.34 467.53 228.72 467.05 228.63 473.96L229.26 475.64Z" />
			<path id="&lt;Path&gt;" class="shp17" d="M225.06 456.66C224.35 460.24 221.66 466.02 217 474C224.33 470.33 230.83 467.67 236.5 466L241 476.5C221.22 487.82 210.06 492.32 207.5 490C201.57 484.63 206.37 459.28 207.23 451.89C208.26 442.95 211.77 430.65 222.15 428.88C226.96 436.77 226.96 447.04 225.06 456.66Z" />
			<path id="&lt;Path&gt;" class="shp14" d="M270.99 490.23C266.4 495.65 264.46 518.53 252.19 508.35C246.71 503.81 255.4 500.77 258.29 496.95C261.47 492.74 262.5 487.37 269.47 489.18L270.99 490.23Z" />
			<path id="&lt;Path&gt;" class="shp17" d="M258.8 496L265.99 498.78C274.79 490.21 276.67 478.97 278.5 467.5C278.99 464.46 272.5 463.01 271 463.5C267.72 464.55 267.25 463 266.25 471.5C265.91 474.35 261.42 491.78 258.8 496Z" />
			<path id="&lt;Path&gt;" class="shp13" d="M262.96 427.83C264.32 434.94 263.75 441.67 261.25 448L258.75 447C261.42 437.67 262.1 431.16 260.81 427.48L262.96 427.83Z" />
		</g>
		<g id="&lt;Group&gt;">
			<path id="&lt;Path&gt;" class="shp9" d="M468.97 244.78L420.52 244.1L420.61 238.33L469.05 239.02L468.97 244.78Z" />
			<path id="&lt;Path&gt;" class="shp7" d="M461.99 248.32C459.6 249.75 456.61 249.12 453.25 248.97C448.87 248.77 444.32 248.94 439.92 248.94C434.77 248.94 429.62 248.94 424.48 248.94C419.67 248.94 419.76 245.74 422.07 243.23C424.42 240.67 427.07 240.02 430.51 240C435.66 239.99 440.81 240 445.96 240C450.8 240 455.65 239.14 460.5 239.42C465.15 239.69 466.58 242.28 464.22 246.04C463.55 247.1 462.8 247.83 461.99 248.32Z" />
			<g id="&lt;Group&gt;">
				<path id="&lt;Path&gt;" class="shp13" d="M422.1 410.56C422.04 410.56 421.97 410.55 421.91 410.54C421.07 410.44 420.47 409.67 420.57 408.83L441.34 242.71C441.44 241.87 442.22 241.28 443.06 241.38C443.9 241.48 444.5 242.25 444.39 243.09L423.63 409.21C423.53 409.99 422.87 410.56 422.1 410.56Z" />
			</g>
			<path id="&lt;Path&gt;" class="shp13" d="M388.65 378.38C394.03 389.41 396.34 397.35 395.57 402.22L377.88 433.75L374.04 430.29C382.24 411.58 386.08 395.3 385.57 381.46L388.65 378.38Z" />
			<path id="&lt;Path&gt;" class="shp14" d="M386.72 375.31C395.18 377.36 403.39 375.18 411.33 368.77L424.02 340.32L431.33 343.01C426.71 358.39 423.25 368.26 420.95 372.62C418.64 376.97 408.58 383.64 390.76 392.61C385.51 383.13 384.16 377.36 386.72 375.31Z" />
			<path id="&lt;Path&gt;" class="shp14" d="M358.38 372.29C351.75 369.55 340.92 401.65 339.04 406.07C335.2 415.13 326.68 421.48 323.68 430.4C327.27 431.89 325.7 431.57 329.04 433.37C336.73 423.76 341.62 417.95 347.12 411.07C351.73 405.3 354.42 398.76 358.16 393.08L358.38 372.29Z" />
			<path id="&lt;Path&gt;" class="shp14" d="M369.28 356.04C373.75 361.84 367.2 373.47 363.96 379.14C368.2 379.19 372.84 379.03 376.83 380.71C378.27 373.44 379.04 363.25 381.47 358.25L369.28 356.04Z" />
			<path id="&lt;Path&gt;" class="shp9" d="M334.81 427.6C329.81 434.52 330.05 435.58 329.84 438.13C329.65 440.53 330.12 443.24 328.84 445.22C327.59 444.03 327.06 442.14 326.56 440.61C324.51 440.66 324.41 442.72 323.83 444.32C323.47 445.33 322.85 449.1 321.85 449.28C320.85 449.46 321.88 444.32 321.71 441.88C320.39 443.41 317.83 448.28 317.17 447.55C316.5 446.82 319.79 441.64 320.18 439.16C317.82 441.37 314.45 445.36 313.61 444.93C312.78 444.5 318.46 438.85 317.94 438.41C317.43 437.98 312.55 442.37 312.12 441.1C311.69 439.84 317.59 436.59 319.63 434.57C321.86 432.35 324.82 426.45 327.12 421.84L334.81 427.6Z" />
			<path id="&lt;Path&gt;" class="shp9" d="M421.33 344.56C424.55 338.63 427.03 333.24 430.09 329.39C433.16 325.55 434.54 326.38 435.32 326.29C438.1 326 439.56 329.03 440.15 331.33C441.22 335.55 441.38 335.89 437.95 338.2C432.63 341.78 432.11 343.74 430.07 349.5L421.33 344.56Z" />
			<path id="&lt;Path&gt;" class="shp15" d="M384.05 559.67C387.05 559.85 403.36 557.55 397.85 553.42C394.24 550.69 385.96 551.14 382.19 553.2L384.05 559.67Z" />
			<g id="&lt;Group&gt;">
				<path id="&lt;Path&gt;" class="shp14" d="M382.01 534.53C380.89 534.45 379.53 534.84 377.9 535.89C371.99 539.68 375.94 549.33 378.02 554.16C380.2 559.23 391.46 561.87 392.26 554.08C392.41 552.54 385.78 552.99 385.03 553.01C386.93 552.96 388.72 535.04 382.01 534.53Z" />
			</g>
			<g id="&lt;Group&gt;">
				<path id="&lt;Path&gt;" class="shp14" d="M341.29 557.45C346.38 556.81 355.71 557.09 358.8 552.38C354.98 550.88 352.67 550.46 348.82 551.37C349.27 551.26 348.61 540.99 348.64 540C348.78 535.71 349.05 531.42 349.48 527.14C350.39 518.09 333.77 529.02 341.29 557.45Z" />
			</g>
			<path id="&lt;Path&gt;" class="shp12" d="M356.92 371.46C352.18 371.98 347.25 379.02 342.12 392.61C343.91 398.25 346.86 401.07 350.96 401.07C358.32 384.97 360.94 375.42 358.84 372.42L356.92 371.46Z" />
			<path id="&lt;Path&gt;" class="shp7" d="M391.72 402.22C388.65 409.15 381.56 422.32 380.96 427.99C380.39 433.33 376.89 440.8 379.8 439.52C384.44 437.49 372.17 444.03 367.52 443.92C361.68 443.79 355.46 441.36 351.57 436.9C346.74 431.36 349.04 429.14 350.35 418.67C353.78 407.47 349.55 395.37 352.48 384.16C353.63 379.78 354.33 374.37 358.84 372.42C368.02 368.47 367.11 374.54 382.49 374.15C385.82 374.07 385.96 374.92 389.42 377.23C392.88 379.54 394.8 395.3 391.72 402.22Z" />
			<path id="&lt;Path&gt;" class="shp13" d="M380.96 427.99C381.67 427.58 383.72 467.83 387.11 548.73L375.39 549.5L360.58 458.75L349.43 547.96L337.73 549.13C340.42 510.46 341.18 483.75 340.02 468.98C338.27 446.83 341.06 435.36 349.81 425.3C365.19 430.17 375.57 431.06 380.96 427.99Z" />
			<g id="&lt;Group&gt;">
				<path id="&lt;Path&gt;" class="shp14" d="M372.04 362.26C375.13 370.14 387.41 365.18 388.71 359.66C390.37 352.58 389.16 346.77 385.08 342.23C381.35 334.78 378.92 333.77 373.09 334.39C366.31 337.42 365.96 346.71 372.04 362.26Z" />
			</g>
			<path id="&lt;Path&gt;" class="shp15" d="M340.59 553.94C340.65 554.19 347.04 554.1 347.59 554.04C348.62 553.94 352.13 551.99 349.53 551.39C352.11 549.68 359.35 551.19 361.56 553.21C362.68 554.24 355.98 555.66 341.45 557.48C341.14 556.32 340.86 555.13 340.59 553.94Z" />
			<path id="&lt;Path&gt;" class="shp15" d="M381.74 340.73C379.9 346.73 381.74 366.07 371.66 364.51C364 363.32 362.25 344.56 364.54 338.52C366.44 333.52 381.49 329.02 385.22 333.4C389.96 338.95 382.51 338.22 381.74 340.73Z" />
			<path id="&lt;Path&gt;" class="shp15" d="M393.34 553.3C389.33 557.22 383.47 555.7 378.84 554.7C375.9 562.05 387.11 559.51 390.69 557.54L393.34 553.3Z" />
			<path id="&lt;Path&gt;" class="shp12" d="M386.72 375.31C382.24 381.72 383.71 388.12 391.14 394.53L409.41 386.84C408.9 380.95 406.65 375.88 402.68 371.65L389.99 374.35L386.72 375.31Z" />
			<path id="&lt;Path&gt;" class="shp15" d="M379.03 344.93C378.52 348.82 380.87 357.53 386.21 356.45C380.58 363.41 367.25 369.42 359.52 360.98C355.82 356.95 356.89 349.85 358.57 345.23C360.89 338.85 363.63 337 369.8 334.93L379.03 344.93Z" />
			<path id="&lt;Path&gt;" class="shp13" d="M382.49 374.15C374.8 399.53 363.65 417.86 349.04 429.14L354.81 429.91C372.5 409.66 382.75 390.94 385.57 373.77L382.49 374.15Z" />
			<path id="&lt;Path&gt;" class="shp13" d="M365.57 370.69C359.94 400.69 363.27 421.07 375.57 431.83L371.73 432.22C361.22 420.42 358.01 399.92 362.11 370.69L365.57 370.69Z" />
		</g>
		<g id="&lt;Group&gt;">
			<path id="&lt;Path&gt;" class="shp21" d="M631.21 453.43C627.36 449.73 619.78 466.99 618.43 473.79C616.88 481.61 618.25 486.88 620.14 494.03C622.44 502.74 629.44 512.36 618.58 515.24C611.31 517.16 602.72 513.38 595.49 512.64C589.53 512.04 583.83 513.16 582.4 507.6C579.19 495.18 597.32 483.01 587.03 473.12C578.16 463.84 581.38 447.31 582.96 438.96C589.09 430.86 595.04 434.85 596.7 423.5C599.43 422.73 602.51 422.4 605.21 421.98C605.45 426.53 606.82 430.09 610.76 432.73C615.57 435.96 621.72 432.19 625.86 435.01C629.99 437.83 632.08 448.92 631.21 453.43Z" />
			<path id="&lt;Path&gt;" class="shp21" d="M580.08 437.59C585.71 436.02 589.12 443.33 590.57 451.49C591.64 457.49 590.6 461.84 587.45 464.55C585.9 469.54 584.16 476.15 582.61 481.13C581.81 483.7 577.54 481.57 576.63 480.78C574.07 478.6 561.67 467.59 558.88 465.7C555.56 463.44 548.8 463.71 546.69 459.92C545.24 457.33 547.08 453.36 550.06 452.66C552.92 451.99 556.24 455.02 558.4 456.47C561.02 458.22 563.37 459.25 565.7 461.41C566.47 462.12 576.12 470.42 576.39 468.92C573.8 449.44 575.03 439 580.08 437.59Z" />
			<path id="&lt;Path&gt;" class="shp12" d="M581 437.07C578 436.72 576.05 439.49 575.12 445.37C574.2 451.24 574.09 455.91 574.78 459.36L581.69 460.4C584.11 445.54 583.88 437.76 581 437.07Z" />
			<g id="&lt;Group&gt;">
				<path id="&lt;Path&gt;" class="shp7" d="M631.21 453.43C628.21 453.4 619.78 466.99 618.43 473.79C616.88 481.61 620.76 487.63 622.65 494.77C623.35 497.43 624.82 500.96 621.6 502.29C619.88 503 617.47 503.04 615.56 503.25C611.37 503.72 607.04 503.47 602.86 503.26C598.36 503.04 594.17 502.66 589.85 501.74C588.85 501.52 583.21 501.84 583.4 500.54C583.95 496.7 583.26 493.12 585.3 490.25C587.33 487.39 589.07 484.02 588.97 480.43C588.9 477.26 585.05 473.06 581.09 464.87C577.15 456.69 582.5 441.46 581.31 439.17C578.96 435.06 586.97 434.82 589.49 433.38C586.81 442.2 586.3 444.18 595.35 445.22C604.39 446.27 611.29 430.51 621.59 432.88C629.59 434.72 632.57 446.34 631.21 453.43Z" />
			</g>
			<path id="&lt;Path&gt;" class="shp10" d="M604.04 388.05C603.53 386.67 613.02 372.84 621.78 383.9C629.29 393.94 613.95 420.77 633.07 424.92C621.09 431.06 613.56 428.45 610.49 417.08C605.88 400.03 606.34 391.05 604.04 388.05Z" />
			<path id="&lt;Path&gt;" class="shp7" d="M601.04 384.82C604.42 381.91 607.03 381.45 608.88 383.44C610.72 385.44 611.64 387.59 611.64 389.89C606.57 386.05 603.04 384.36 601.04 384.82Z" />
			<path id="&lt;Path&gt;" class="shp20" d="M605.3 422.96C605.27 422.64 605.23 422.31 605.21 421.98C602.51 422.4 599.43 422.73 596.7 423.5C596.32 426.09 595.5 428.04 594.39 429.62C598.35 430.72 602.51 427.72 605.3 422.96Z" />
			<path id="&lt;Path&gt;" class="shp21" d="M588.15 392.85C585.63 400.79 587.11 413.11 590.98 420.15C596.51 430.2 604.85 425.48 608.81 416.84C612.07 409.71 614.45 395.19 607.65 389.32C604.82 386.89 598.5 385.76 594.82 386.99C588.25 389.16 588.84 393.59 588.81 399.51L588.15 392.85Z" />
			<path id="&lt;Path&gt;" class="shp15" d="M606.99 385.94C612.73 388.85 616.63 395.51 616.88 401.64C617.11 407.06 614.76 414.03 609.37 416.36C608.81 414.33 608.34 412.82 609.61 410.91C610.79 409.12 612.11 408.45 610.68 406.06C608.85 405.86 607.9 408.17 607.25 409.5C607.26 409.67 607.27 409.67 607.28 409.5C604.99 406.62 603.56 402.13 604.98 398.54C602.51 404.81 595.89 401.07 591.43 403.7C587.84 405.81 588.32 408.43 588.1 412.21C581.53 409.68 584.09 398.14 585.93 393.37C587.39 389.58 589.24 387.14 593.18 385.74C597.46 384.21 602.83 383.83 606.99 385.94Z" />
			<path id="&lt;Path&gt;" class="shp9" d="M550.76 453.14C556.06 453.14 560.15 454.29 563.03 456.6L560.09 468.35C560.09 465.93 558.3 464.43 554.73 463.85C551.16 463.28 549.83 459.71 550.76 453.14Z" />
			<path id="&lt;Path&gt;" class="shp14" d="M584.16 621.67L577.21 620.22C576.95 621.83 576.66 623.43 576.32 624.99C574.3 634.6 562.93 637.26 563.04 640.47C563.1 642.61 569.6 641.07 582.54 635.85C583.31 627.19 583.85 622.46 584.16 621.67Z" />
			<path id="&lt;Path&gt;" class="shp14" d="M612.83 623.06L607 620.38C606.5 622.07 606.45 625.69 606.16 627.37C604.33 638.08 595.12 637.92 594.83 640.78C594.61 643.06 600.69 642.05 613.09 637.75C612.48 628.76 612.39 623.87 612.83 623.06Z" />
			<path id="&lt;Path&gt;" class="shp13" d="M580.29 504.47L574.41 626.3L584.9 625.97L598.27 528.96L604.8 628.19L612.58 628.74C628.59 564.96 631.21 518.12 620.46 488.22C609.16 492.14 597.64 492.95 585.9 490.67C582.56 493.81 580.69 498.41 580.29 504.47Z" />
			<g id="&lt;Group&gt;">
				<path id="&lt;Path&gt;" class="shp8" d="M622.01 492.25C618.5 492.25 615.49 491.01 613.71 494.57C612.78 496.43 612.27 501.61 613.02 503.77C614.55 508.17 625.8 507.39 629.58 506.5C630.13 503.88 630.59 501.83 630.3 498.94C629.87 494.68 629.05 495.53 625.46 494.32L622.01 492.25Z" />
			</g>
			<path id="&lt;Path&gt;" class="shp21" d="M635.62 454.56C638.38 460.02 646.28 467.93 645.1 473.93C644.11 478.94 640.79 483.27 637.41 486.95C634.53 490.08 630.02 495.77 625.74 496.66C624.43 496.92 624.66 497.18 623.86 496.16C621.82 493.56 625.81 490.67 627.2 488.89C629.53 485.93 632.27 481.48 635.42 475.54C634.19 472.14 632.45 468.78 630.18 465.45C625.66 458.84 620.16 452.68 619.9 444.33C619.81 441.54 620.73 434.31 625.46 435.49C629.16 436.42 633.78 450.92 635.62 454.56Z" />
			<path id="&lt;Path&gt;" class="shp12" d="M636.96 455.59C636.93 455.83 636.85 456.09 636.73 456.38C636.24 457.54 634.36 458.69 633.36 459.37C631.63 460.54 628.15 462.69 626.04 461.21C621.92 458.33 619.36 449.06 619.21 444.39C619.11 441.36 620.11 433.53 625.23 434.81C630.59 436.15 632.86 448.37 635.42 452.44C636.3 453.85 637.11 454.45 636.96 455.59Z" />
			<path id="&lt;Path&gt;" class="shp15" d="M582.9 632.01C582.74 632.09 582.59 632.15 582.43 632.24C571.24 638.45 570.31 635.36 570.36 633.97C566.77 636.93 562.97 638.61 563.04 640.47C563.1 642.61 569.6 641.07 582.54 635.85C582.64 634.74 582.76 633.46 582.9 632.01Z" />
			<path id="&lt;Path&gt;" class="shp15" d="M612.73 633.85C607.81 636.61 608.38 636.69 604.08 637.37C599.78 638.04 601.7 636.01 601.64 635.77C598.28 638.01 595.03 638.79 594.83 640.78C594.61 643.06 600.69 642.05 613.09 637.75C613.06 636.99 612.94 635.69 612.73 633.85Z" />
			<path id="&lt;Path&gt;" class="shp7" d="M592.98 418.98C594.96 420.95 598.11 420.78 602.42 418.46C600.67 421.59 598.92 422.97 597.17 422.63C595.43 422.28 594.03 421.06 592.98 418.98Z" />
			<g id="&lt;Group&gt;">
				<path id="&lt;Path&gt;" class="shp15" d="M539.39 446.08L541.05 446.08L541.05 444.46L539.39 444.46L539.39 446.08Z" />
				<path id="&lt;Path&gt;" class="shp22" d="M542.55 443.77C542.96 443.77 543.62 443.77 544.03 443.77L549.72 443.77C550.13 443.77 550.64 444.02 550.84 444.32L553.67 448.34C553.88 448.63 553.72 448.88 553.31 448.88L546.98 448.88C546.58 448.88 546.07 448.63 545.87 448.34L545.18 447.35C544.97 447.05 544.47 446.8 544.06 446.8L540.8 446.8C540.39 446.8 540.06 446.52 540.06 446.17L540.06 444.41C540.06 444.06 540.39 443.77 540.8 443.77L542.55 443.77Z" />
				<path id="&lt;Path&gt;" class="shp22" d="M544.56 446.78C544.31 448.02 543.26 449.01 541.41 449.75C538.62 450.87 539.3 451.55 540.36 451.39C541.41 451.24 544.56 450.49 546.2 448.41L545.46 446.06L544.56 446.78Z" />
				<g id="&lt;Group&gt;">
					<path id="&lt;Path&gt;" class="shp7" d="M546.54 451.77C546.54 452.3 547.04 452.72 547.66 452.72L552.91 452.72C553.53 452.72 554.03 452.3 554.03 451.77L554.03 449.87C554.03 449.34 553.53 448.91 552.91 448.91L547.66 448.91C547.04 448.91 546.54 449.34 546.54 449.87L546.54 451.77Z" />
				</g>
				<g id="&lt;Group&gt;">
					<path id="&lt;Path&gt;" class="shp8" d="M553.71 451.77C556.71 469.3 558.31 478.54 558.52 479.49C558.84 480.88 557.98 482.91 550.49 482.98C550.42 482.98 550.36 482.98 550.29 482.98C550.22 482.98 550.15 482.98 550.08 482.98C542.59 482.91 541.73 480.88 542.05 479.49C542.26 478.54 543.76 469.3 546.54 451.77L553.71 451.77Z" />
				</g>
				<g id="&lt;Group&gt;">
					<path id="&lt;Path&gt;" class="shp16" d="M546.54 451.77L549.36 451.77L549.52 482.96C542.55 482.8 541.74 480.85 542.05 479.49C542.26 478.54 543.76 469.3 546.54 451.77Z" />
				</g>
				<g id="&lt;Group&gt;">
					<path id="&lt;Path&gt;" class="shp8" d="M548.24 451.77L552.01 451.77L555.11 482.57C553.96 482.81 552.46 482.96 550.49 482.98C550.42 482.98 550.36 482.98 550.29 482.98C550.22 482.98 550.15 482.98 550.08 482.98C548.11 482.96 546.61 482.81 545.45 482.57L548.24 451.77Z" />
				</g>
			</g>
			<path id="&lt;Path&gt;" class="shp9" d="M545.63 454.06C546.75 453.42 547.84 452.97 548.86 452.32C549.92 453.45 547.35 455.65 546.56 456.34C547.75 456.29 548.6 455.19 549.76 455.12C550.14 457.44 547.43 458.42 546.68 460.26C547.76 460.12 549.09 458.87 550.33 459.5C550.76 461.51 547.15 463.12 546.02 464.33C546.9 463.82 547.88 463.15 548.95 463.14C550.28 463.12 550.27 464.23 549.3 465.09C548.59 465.72 547.77 466.24 546.94 466.67C546.61 466.85 545.48 467.68 545.14 467.7C544.12 467.74 543.82 466.59 543.73 465.7C543.56 463.94 543.46 462.15 543.7 460.4C543.96 458.49 544.19 455.33 545.63 453.95L545.63 454.06Z" />
			<path id="&lt;Path&gt;" class="shp9" d="M624.2 488.91L630.25 495.3C628.4 495.65 627.31 496.57 626.96 498.07C626.62 499.57 625.81 501.81 624.54 504.81C624.15 505.74 624.22 507.63 623.3 508.22C622.38 508.8 622 507.98 621.29 507.42C620.95 508.93 619.63 508.35 619.5 507.08C619.16 507.47 618.68 507.55 618.17 507.72C617.98 506.98 617.67 506.34 617.64 505.56C615.59 507.5 615.99 504.14 616.41 503.03C617.11 501.17 618.11 499.39 619.19 497.72C621.43 494.27 623.68 492.54 624.2 488.91Z" />
			<path id="&lt;Path&gt;" class="shp9" d="M622.75 494C618.25 494.88 616 495.88 616 497C616 498.13 618.25 498 622.75 496.63L622.75 494Z" />
			<path id="&lt;Path&gt;" class="shp13" d="M586.18 450.03C592.17 451.87 597.93 451.87 603.46 450.03C605.54 454.41 608.3 457.98 611.76 460.74C610.44 477.5 611.67 487.28 615.44 490.08C602.85 494.02 592.52 494.84 584.45 492.54L582.03 465.93L586.18 450.03Z" />
			<path id="&lt;Path&gt;" class="shp13" d="M605.88 454.52C608.4 441.56 612.83 434.35 619.17 432.88L614.52 433.1C608.3 438.86 604.38 445.42 602.77 452.79C601.64 457.99 602.67 458.57 605.88 454.52Z" />
			<path id="&lt;Path&gt;" class="shp13" d="M587.22 434.13L588.6 452.45L586.18 451.76L584.45 434.48L587.22 434.13Z" />
			<path id="&lt;Path&gt;" class="shp15" d="M588.5 460.5L603.25 461.25C603.95 472.42 601.53 478 596 478C590.47 478 587.97 472.17 588.5 460.5Z" />
		</g>
		<g id="&lt;Group&gt;">
			<path id="&lt;Path&gt;" class="shp9" d="M671.35 624.81C673.16 616.72 675.26 606.74 675.26 605.84C675.26 603.88 667.18 602.29 657.21 602.29C647.24 602.29 638.65 603.88 638.65 605.84C638.65 607.61 645.97 636.98 645.97 638.24C645.97 639.69 650.5 640.87 657.21 640.87C663.92 640.87 668.13 639.69 668.13 638.24C668.13 637.95 668.92 635.81 669.5 633.15L671.35 624.81Z" />
			<g id="&lt;Group&gt;">
				<path id="&lt;Path&gt;" class="shp8" d="M674.62 605.76C674.62 607.37 666.65 608.68 656.82 608.68C646.99 608.68 639.03 607.37 639.03 605.76C639.03 604.14 646.99 602.83 656.82 602.83C666.65 602.83 674.62 604.14 674.62 605.76Z" />
			</g>
			<g id="&lt;Group&gt;">
				<path id="&lt;Path&gt;" class="shp13" d="M668.13 623.68C667.09 623.68 666.07 623.5 665.05 623.15C658.68 620.92 655.07 612.46 654.92 612.1C654.73 611.64 654.94 611.12 655.4 610.92C655.86 610.73 656.39 610.95 656.58 611.4C656.61 611.48 660.04 619.49 665.65 621.45C667.8 622.2 670.05 621.95 672.32 620.71C672.75 620.47 673.3 620.63 673.54 621.06C673.78 621.5 673.62 622.05 673.18 622.29C671.49 623.21 669.8 623.68 668.13 623.68Z" />
			</g>
		</g>
		<g id="&lt;Group&gt;" style="opacity: 0.302">
			<path id="&lt;Path&gt;" class="shp2" d="M394.25 601.13C394.25 603.4 381.15 605.25 365 605.25C348.85 605.25 335.75 603.4 335.75 601.13C335.75 598.85 348.85 597 365 597C381.15 597 394.25 598.85 394.25 601.13Z" />
		</g>
		<path id="&lt;Path&gt;" class="shp1" d="M806.5 594.75C806.5 597.03 785.79 598.88 760.25 598.88C734.71 598.88 714 597.03 714 594.75C714 592.47 734.71 590.63 760.25 590.63C785.79 590.63 806.5 592.47 806.5 594.75Z" />
		<path id="&lt;Path&gt;" class="shp1" d="M485.5 663.25C485.5 667.38 464.34 670.73 438.25 670.73C412.15 670.73 391 667.38 391 663.25C391 659.12 412.15 655.78 438.25 655.78C464.34 655.78 485.5 659.12 485.5 663.25Z" />
		<path id="&lt;Path&gt;" class="shp1" d="M840.5 554.38C840.5 556.23 827.18 557.73 810.75 557.73C794.32 557.73 781 556.23 781 554.38C781 552.53 794.32 551.03 810.75 551.03C827.18 551.03 840.5 552.53 840.5 554.38Z" />
		<g id="&lt;Group&gt;">
			<path id="&lt;Path&gt;" class="shp23" d="M501.88 477C501.88 480.11 499.36 482.63 496.25 482.63C493.14 482.63 490.63 480.11 490.63 477C490.63 473.89 493.14 471.38 496.25 471.38C499.36 471.38 501.88 473.89 501.88 477Z" />
			<path id="&lt;Path&gt;" class="shp23" d="M494.81 475.17C494.81 475.96 494.17 476.61 493.37 476.61C492.58 476.61 491.93 475.96 491.93 475.17C491.93 474.38 492.58 473.73 493.37 473.73C494.17 473.73 494.81 474.38 494.81 475.17Z" />
		</g>
		<g id="&lt;Group&gt;">
			<path id="&lt;Path&gt;" class="shp23" d="M484.98 460.88C484.98 467.28 479.78 472.48 473.38 472.48C466.97 472.48 461.77 467.28 461.77 460.88C461.77 454.47 466.97 449.27 473.38 449.27C479.78 449.27 484.98 454.47 484.98 460.88Z" />
			<path id="&lt;Path&gt;" class="shp23" d="M470.41 457.1C470.41 458.74 469.08 460.07 467.44 460.07C465.8 460.07 464.47 458.74 464.47 457.1C464.47 455.46 465.8 454.13 467.44 454.13C469.08 454.13 470.41 455.46 470.41 457.1Z" />
		</g>
		<g id="&lt;Group&gt;">
			<path id="&lt;Path&gt;" class="shp23" d="M424.98 502.5C424.98 507.04 421.29 510.73 416.75 510.73C412.21 510.73 408.52 507.04 408.52 502.5C408.52 497.96 412.21 494.27 416.75 494.27C421.29 494.27 424.98 497.96 424.98 502.5Z" />
			<path id="&lt;Path&gt;" class="shp23" d="M414.65 499.82C414.65 500.98 413.7 501.93 412.54 501.93C411.38 501.93 410.43 500.98 410.43 499.82C410.43 498.66 411.38 497.72 412.54 497.72C413.7 497.72 414.65 498.66 414.65 499.82Z" />
		</g>
		<path id="&lt;Path&gt;" class="shp24" d="M537.5 134.62C537.5 145.6 528.6 154.5 517.63 154.5C506.65 154.5 497.75 145.6 497.75 134.62C497.75 123.65 506.65 114.75 517.63 114.75C528.6 114.75 537.5 123.65 537.5 134.62Z" />
		<path id="&lt;Path&gt;" class="shp24" d="M548 100.5C548 103.4 545.65 105.75 542.75 105.75C539.85 105.75 537.5 103.4 537.5 100.5C537.5 97.6 539.85 95.25 542.75 95.25C545.65 95.25 548 97.6 548 100.5Z" />
		<path id="&lt;Path&gt;" class="shp24" d="M663.5 373.5C663.5 381.78 656.79 388.5 648.5 388.5C640.21 388.5 633.5 381.78 633.5 373.5C633.5 365.22 640.21 358.5 648.5 358.5C656.79 358.5 663.5 365.22 663.5 373.5Z" />
		<path id="&lt;Path&gt;" class="shp3" d="M415.25 102C415.25 125.2 396.45 144 373.25 144C350.05 144 331.25 125.2 331.25 102C331.25 78.8 350.05 60 373.25 60C396.45 60 415.25 78.8 415.25 102Z" />
		<path id="&lt;Path&gt;" class="shp3" d="M427.25 37.88C427.25 44.71 421.71 50.25 414.88 50.25C408.04 50.25 402.5 44.71 402.5 37.88C402.5 31.04 408.04 25.5 414.88 25.5C421.71 25.5 427.25 31.04 427.25 37.88Z" />
		<path id="&lt;Path&gt;" class="shp23" d="M516.88 125.25C516.88 128.36 514.36 130.87 511.25 130.87C508.14 130.87 505.63 128.36 505.63 125.25C505.63 122.14 508.14 119.62 511.25 119.62C514.36 119.62 516.88 122.14 516.88 125.25Z" />
		<path id="&lt;Path&gt;" class="shp24" d="M648.5 255.37C648.5 258.48 645.98 261 642.88 261C639.77 261 637.25 258.48 637.25 255.37C637.25 252.27 639.77 249.75 642.88 249.75C645.98 249.75 648.5 252.27 648.5 255.37Z" />
		<g id="&lt;Group&gt;">
			<path id="&lt;Path&gt;" class="shp15" d="M808.19 522.85C811.27 516.81 816.18 513.83 814.24 505.98C813.46 502.85 811.1 500.89 810.02 498.12C808.66 494.67 809.79 494 810.25 490.37C811.23 482.52 806.29 480.89 803.44 474.92C801.45 470.75 802.04 465.86 799.38 461.45C796.7 456.97 791.67 452.98 790.67 447.65C789.93 457.09 783.93 471.59 791.13 479.55C786.8 482.46 785.98 488.19 787.99 492.69C788.96 494.83 792.09 496.5 792.65 498.76C793.41 501.86 791.5 501.97 791.25 504.68C790.46 513.27 815.4 525.51 808.82 534.12L808.19 522.85Z" />
			<g id="&lt;Group&gt;">
				<path id="&lt;Path&gt;" class="shp7" d="M793.72 466.26C791.45 465.41 789.68 464.35 788.06 463.09C788.09 462.82 788.13 462.57 788.17 462.31C789.88 463.68 791.5 464.67 793.6 465.48C793.41 464.31 793.23 463.13 793.06 461.97C792.91 460.95 792.75 459.93 792.59 458.9C792.44 457.95 792.24 456.98 792.05 456.04C791.89 455.24 791.72 454.42 791.59 453.62C791.5 453.13 791.39 452.54 791.26 451.93C791.01 450.68 790.74 449.33 790.63 448.1C790.64 447.95 790.65 447.8 790.67 447.65C790.87 448.73 791.24 449.76 791.72 450.73C791.79 451.11 791.86 451.46 791.93 451.8C792.05 452.41 792.17 452.99 792.25 453.52C792.39 454.29 792.55 455.12 792.72 455.9C792.91 456.85 793.1 457.83 793.26 458.8C793.42 459.82 793.57 460.85 793.72 461.87C794.11 464.43 794.52 467.06 795.02 469.67C797.32 468.23 798.34 464.17 798.86 460.62C799.04 460.9 799.22 461.17 799.38 461.45C798.82 465.07 797.65 469 795.16 470.38C795.22 470.66 795.27 470.95 795.34 471.24C795.89 473.76 796.54 476.26 797.25 478.73C799.46 476.14 801.11 473.02 801.97 469.92C802.06 470.38 802.16 470.84 802.26 471.3C801.27 474.23 799.61 477.1 797.47 479.5C798.09 481.63 798.74 483.74 799.38 485.8C799.42 485.94 799.44 486 799.46 486.07C799.64 486.64 799.82 487.23 800 487.81C800.52 487.03 801.15 486.3 801.76 485.6C802.38 484.91 803 484.21 803.5 483.45C804.59 481.81 805.1 480.16 805.58 478.4C805.76 478.64 805.93 478.87 806.1 479.08C805.65 480.67 805.1 482.27 804.07 483.83C803.54 484.62 802.89 485.35 802.27 486.06C801.59 486.83 800.88 487.63 800.35 488.5L800.18 488.39C800.99 491.04 801.8 493.74 802.51 496.45C802.55 496.58 802.59 496.73 802.63 496.88C803.15 495.89 804.12 494.87 805 493.95C805.57 493.36 806.11 492.8 806.43 492.35C807.85 490.34 809.28 488.1 810.08 485.83C810.18 486.24 810.25 486.67 810.31 487.11C809.45 489.09 808.2 491 806.98 492.74C806.63 493.24 806.08 493.81 805.49 494.42C804.41 495.54 803.08 496.93 802.92 498.01C804.07 502.33 805.29 506.86 806.56 511.28C807.53 514.61 807.99 518.06 808.44 521.4C808.47 521.66 808.5 521.92 808.54 522.18C808.42 522.4 808.3 522.62 808.19 522.85L808.34 525.48C808.12 524.15 807.94 522.81 807.76 521.49C807.32 518.18 806.87 514.75 805.91 511.47C804.63 507.02 803.4 502.47 802.26 498.15C802.12 497.59 801.98 497.11 801.86 496.62C801.61 495.67 801.34 494.71 801.06 493.75C799.81 493.29 798.26 493.09 796.76 492.91C795.6 492.75 794.4 492.6 793.34 492.33C790.71 491.65 788.88 490.47 787.03 489.19C786.99 488.9 786.97 488.6 786.96 488.31C788.93 489.68 790.78 490.97 793.51 491.67C794.53 491.93 795.71 492.08 796.85 492.23C798.21 492.41 799.61 492.59 800.83 492.96C800.18 490.7 799.49 488.46 798.81 486.27C798.2 485.88 797.31 485.72 796.44 485.56C795.76 485.45 795.05 485.32 794.46 485.09C792.92 484.51 790.4 483.57 788.74 481.89C788.87 481.7 789 481.52 789.15 481.35C790.47 482.72 792.56 483.66 794.69 484.46C795.23 484.66 795.9 484.78 796.56 484.9C797.23 485.02 797.93 485.14 798.53 485.36C797.51 482.06 796.48 478.7 795.61 475.28C795.37 475.28 795.11 475.27 794.85 475.26C792.75 475.09 790.1 474.18 787.98 472.85C787.92 472.55 787.88 472.24 787.84 471.94C790.1 473.5 793.23 474.58 795.44 474.61C795.16 473.53 794.91 472.46 794.67 471.38C794.3 469.68 794 467.96 793.72 466.26Z" />
				<path id="&lt;Path&gt;" class="shp7" d="M808.82 528.22C808.72 527.74 808.63 527.25 808.55 526.76C808.82 527.22 809.06 527.68 809.26 528.13L808.82 528.22Z" />
			</g>
			<path id="&lt;Path&gt;" class="shp18" d="M764.5 484.28C771.02 488.1 789.62 486.1 787.13 497.79C795.71 496.61 798.37 499.99 797.83 508.12C797.89 507.24 800.98 507.85 801.43 508.11C802.17 508.55 803.07 509.98 803.49 510.73C804.83 513.14 805.02 515.89 805.35 518.58C805.75 521.79 806.43 524.97 807.28 528.07C801.78 521.39 781.97 521.53 785.47 513.34C782.4 513.74 776.76 514.77 774.3 512.27C771.15 509.08 774.85 505.73 777.65 504.13C765.72 502.61 766.96 497.43 768.59 491.56L766.49 489.05C765.54 487.63 764.81 485.9 764.5 484.28Z" />
			<g id="&lt;Group&gt;">
				<g id="&lt;Group&gt;">
					<path id="&lt;Path&gt;" class="shp25" d="M808.68 529.85C825 519.82 824.95 479.42 824.95 479.01L824.41 479.01C824.41 479.42 824.46 519.52 808.4 529.39L808.68 529.85Z" />
				</g>
				<g id="&lt;Group&gt;">
					<path id="&lt;Path&gt;" class="shp25" d="M814.29 523.72C814.31 523.9 812.25 514.27 807.85 514.98C804.91 515.46 807.07 518.43 814.31 523.9L814.29 523.72Z" />
				</g>
				<g id="&lt;Group&gt;">
					<path id="&lt;Path&gt;" class="shp25" d="M817.63 518.65C814.82 511.32 812.31 508.39 810.1 509.86C807.88 511.33 810.39 514.26 817.63 518.65Z" />
				</g>
				<g id="&lt;Group&gt;">
					<path id="&lt;Path&gt;" class="shp25" d="M819.9 512.42C816.33 504.56 813.19 501.64 810.46 503.64C808.4 505.15 811.54 508.08 819.9 512.42Z" />
				</g>
				<g id="&lt;Group&gt;">
					<path id="&lt;Path&gt;" class="shp25" d="M822.54 501.36C819.81 493.67 817.37 490.79 815.21 492.72C813.04 494.66 815.49 497.54 822.54 501.36Z" />
				</g>
				<g id="&lt;Group&gt;">
					<path id="&lt;Path&gt;" class="shp25" d="M821.96 505.67C817.42 498.78 814.37 496.55 812.81 499C811.76 500.64 814.81 502.87 821.96 505.67Z" />
				</g>
				<g id="&lt;Group&gt;">
					<path id="&lt;Path&gt;" class="shp25" d="M823.6 493.87C820.43 485.51 817.79 482.42 815.66 484.59C813.53 486.77 816.18 489.86 823.6 493.87Z" />
				</g>
				<g id="&lt;Group&gt;">
					<path id="&lt;Path&gt;" class="shp25" d="M824.04 485.55C822.19 478.24 820.68 475.67 819.51 477.84C818.33 480.02 819.84 482.59 824.04 485.55Z" />
				</g>
				<g id="&lt;Group&gt;">
					<path id="&lt;Path&gt;" class="shp25" d="M824.75 482.59C827.65 475.9 827.97 472.57 825.69 472.6C823.42 472.64 823.11 475.97 824.75 482.59Z" />
				</g>
				<g id="&lt;Group&gt;">
					<path id="&lt;Path&gt;" class="shp25" d="M824.04 485.55C830.85 483.53 833.3 481.56 831.39 479.63C829.49 477.71 827.04 479.68 824.04 485.55Z" />
				</g>
				<g id="&lt;Group&gt;">
					<path id="&lt;Path&gt;" class="shp25" d="M823.89 491.86C831.89 489.69 835.42 487.23 834.49 484.47C833.56 481.71 830.03 484.17 823.89 491.86Z" />
				</g>
				<g id="&lt;Group&gt;">
					<path id="&lt;Path&gt;" class="shp25" d="M822.68 498.11C833.27 495.63 837.74 492.99 836.09 490.2C834.43 487.41 829.96 490.04 822.68 498.11Z" />
				</g>
				<g id="&lt;Group&gt;">
					<path id="&lt;Path&gt;" class="shp25" d="M821.62 504.16C833.56 502.95 839.1 500.72 838.23 497.48C837.35 494.24 831.81 496.46 821.62 504.16Z" />
				</g>
				<g id="&lt;Group&gt;">
					<path id="&lt;Path&gt;" class="shp25" d="M819.05 514.17C829.7 510.13 835.45 509.61 836.29 512.62C837.13 515.63 831.39 516.15 819.05 514.17Z" />
				</g>
				<g id="&lt;Group&gt;">
					<path id="&lt;Path&gt;" class="shp25" d="M821.39 508.06C830.15 503.15 835.1 502.15 836.22 505.05C837.35 507.96 832.4 508.97 821.39 508.06Z" />
				</g>
				<g id="&lt;Group&gt;">
					<path id="&lt;Path&gt;" class="shp25" d="M817.87 517.72C827.4 515.37 831.88 515.78 831.31 518.97C830.74 522.15 826.18 522.04 817.63 518.65L817.87 517.72Z" />
				</g>
			</g>
			<path id="&lt;Path&gt;" class="shp26" d="M790.57 520.54C790.57 539.82 797.48 555.46 805.99 555.46C814.51 555.46 821.42 539.82 821.42 520.54L790.57 520.54Z" />
			<path id="&lt;Path&gt;" class="shp1" d="M790.57 554.21C790.57 555.4 797.48 556.36 805.99 556.36C814.51 556.36 821.42 555.4 821.42 554.21L790.57 554.21Z" />
			<path id="&lt;Path&gt;" class="shp23" d="M793.58 526.3C793.58 527.97 795.04 529.32 796.83 529.32C798.62 529.32 800.08 527.97 800.08 526.3C800.08 524.63 798.62 523.29 796.83 523.29C795.04 523.29 793.58 524.63 793.58 526.3Z" />
		</g>
		<path id="&lt;Path&gt;" class="shp1" d="M326.99 546.07C326.99 547.44 316.92 548.55 304.5 548.55C292.07 548.55 282 547.44 282 546.07C282 544.7 292.07 543.59 304.5 543.59C316.92 543.59 326.99 544.7 326.99 546.07Z" />
		<g id="&lt;Group&gt;">
			<path id="&lt;Path&gt;" class="shp18" d="M295.66 527.58C295.66 538.17 300.08 546.74 305.53 546.74C310.99 546.74 315.41 538.17 315.41 527.58L295.66 527.58Z" />
			<g id="&lt;Group&gt;">
				<path id="&lt;Path&gt;" class="shp27" d="M307.48 528.97C310.46 527.3 316.27 525.6 317.46 521.59C319.4 515.12 311.71 516.56 308.5 518.03C310.32 516.28 318.08 512.62 316.24 509.24C314.37 505.79 308.63 511.3 308.98 514.26C311.28 509.58 312.69 498.21 309.54 493.63C306.71 489.53 303.85 493.04 303.28 496.68C302.53 501.47 303.47 506.36 305.53 510.67C304.09 508.48 300.98 503.48 297.78 505.89C298.21 510.25 302.79 514.42 304.7 518.2C302.67 516.8 296.21 514.93 296.5 519.22C296.76 522.97 304.24 524.09 305.65 526.54L307.48 528.97Z" />
				<path id="&lt;Path&gt;" class="shp26" d="M306.57 527.75C307.13 525.41 307.54 521.01 309.37 519.22C312.14 516.49 311.86 520.61 310.65 522.31C313.52 519.93 317.87 513.05 321.51 512.29C326.92 511.16 319.04 518.58 318.17 519.77C320.45 519.54 328.54 515.85 328.79 519.52C329.09 523.65 319.33 524.14 316.72 525.08C318.41 526.07 320.35 527.66 319.92 529.83C316.42 531.08 314.9 529.31 312.05 528.02C310.45 530.1 307.06 530.46 305.35 528.36L306.57 527.75Z" />
				<path id="&lt;Path&gt;" class="shp22" d="M307.48 529.58C306.88 528.73 302.45 514.86 301.01 520.96C299.48 518.02 294.75 507.87 290.49 512.52C286.43 516.96 292.47 523.1 297.02 523.47C295 524.92 292.08 527.44 295.91 528.66C298.54 529.51 302.12 527.79 304.74 527.75L307.48 529.58Z" />
			</g>
		</g>
		<path id="&lt;Path&gt;" class="shp28" d="M327.45 275.94C327.45 295.79 311.35 311.87 291.51 311.87C271.67 311.87 255.58 295.79 255.58 275.94C255.58 256.09 271.67 240.01 291.51 240.01C311.35 240.01 327.45 256.09 327.45 275.94Z" />
		<path id="&lt;Path&gt;" class="shp28" d="M742.95 31.07C742.95 47.81 729.37 61.37 712.64 61.37C695.9 61.37 682.33 47.81 682.33 31.07C682.33 14.32 695.9 0.76 712.64 0.76C729.37 0.76 742.95 14.32 742.95 31.07Z" />
		<path id="&lt;Path&gt;" class="shp29" d="M820.45 112.07C820.45 131.02 805.09 146.37 786.14 146.37C767.19 146.37 751.83 131.02 751.83 112.07C751.83 93.11 767.19 77.76 786.14 77.76C805.09 77.76 820.45 93.11 820.45 112.07Z" />
		<path id="&lt;Path&gt;" class="shp30" d="M482.31 56C482.31 73.15 468.4 87.05 451.25 87.05C434.1 87.05 420.19 73.15 420.19 56C420.19 38.84 434.1 24.93 451.25 24.93C468.4 24.93 482.31 38.84 482.31 56Z" />
		<g id="&lt;Group&gt;">
			<g id="&lt;Group&gt;">
				<g id="&lt;Group&gt;">
					<path id="&lt;Compound Path&gt;" fill-rule="evenodd" class="shp7" d="M460.67 78.16L442.09 78.16C441.75 78.16 441.46 77.93 441.37 77.6L432.52 43.55C432.46 43.33 432.51 43.09 432.66 42.9C432.8 42.72 433.02 42.61 433.25 42.61L469.51 42.61C469.74 42.61 469.96 42.72 470.11 42.9C470.25 43.09 470.3 43.33 470.24 43.55L461.4 77.6C461.31 77.93 461.01 78.16 460.67 78.16ZM442.67 76.66L460.09 76.66L468.54 44.11L434.22 44.11L442.67 76.66Z" />
				</g>
				<g id="&lt;Group&gt;">
					<path id="&lt;Path&gt;" class="shp7" d="M464.56 64.96C458.89 64.96 451.41 59.3 448.72 50.31C448.6 49.91 448.83 49.49 449.23 49.37C449.62 49.26 450.04 49.48 450.16 49.88C452.95 59.23 460.75 63.88 465.15 63.43C466.94 63.27 468.18 62.4 468.71 60.93C469.5 58.75 468.6 55.78 466.53 53.72C466.24 53.42 466.24 52.95 466.53 52.66C466.82 52.37 467.3 52.36 467.59 52.65C470.06 55.12 471.1 58.73 470.12 61.44C469.38 63.47 467.67 64.71 465.28 64.93C465.05 64.95 464.8 64.96 464.56 64.96Z" />
				</g>
				<g id="&lt;Group&gt;">
					<path id="&lt;Compound Path&gt;" fill-rule="evenodd" class="shp7" d="M448.47 51.24C446.74 51.24 445.33 49.83 445.33 48.09C445.33 46.36 446.74 44.95 448.47 44.95C450.21 44.95 451.62 46.36 451.62 48.09C451.62 49.83 450.21 51.24 448.47 51.24ZM448.47 46.45C447.57 46.45 446.83 47.18 446.83 48.09C446.83 49 447.57 49.74 448.47 49.74C449.38 49.74 450.12 49 450.12 48.09C450.12 47.18 449.38 46.45 448.47 46.45Z" />
				</g>
			</g>
			<g id="&lt;Group&gt;">
				<path id="&lt;Path&gt;" class="shp7" d="M434.1 43.86C433.55 43.77 433.29 43.38 433.36 42.97C433.76 40.86 435.62 39.32 437.78 39.32C438.26 39.32 438.73 39.4 439.19 39.55C440.35 37.37 442.96 36.13 445.39 36.6C446.65 33.72 449.5 31.83 452.69 31.83C455.97 31.83 458.88 33.84 460.08 36.82C461.02 36.33 462.06 36.07 463.15 36.07C466.84 36.07 469.84 39.07 469.84 42.76C469.84 42.89 469.83 43.02 469.82 43.15C469.8 43.56 469.43 43.9 469.04 43.86C468.62 43.84 468.3 43.49 468.32 43.07L468.34 42.76C468.34 39.9 466.01 37.57 463.15 37.57C462.04 37.57 460.99 37.91 460.11 38.56C459.91 38.71 459.65 38.74 459.41 38.66C459.18 38.58 459 38.39 458.94 38.15C458.19 35.31 455.62 33.33 452.69 33.33C449.91 33.33 447.44 35.1 446.57 37.74C446.5 37.93 446.37 38.08 446.19 38.17C446.01 38.26 445.8 38.27 445.62 38.21C443.52 37.51 441.05 38.69 440.27 40.79C440.2 40.99 440.04 41.15 439.83 41.23C439.63 41.31 439.41 41.29 439.21 41.19C438.76 40.95 438.28 40.82 437.78 40.82C436.34 40.82 435.1 41.84 434.84 43.25C434.77 43.61 434.45 43.86 434.1 43.86Z" />
			</g>
		</g>
		<g id="&lt;Group&gt;">
			<g id="&lt;Group&gt;">
				<path id="&lt;Compound Path&gt;" fill-rule="evenodd" class="shp7" d="M718.19 52.11C718.09 52.11 717.98 52.08 717.88 52.04C717.81 52.01 711.21 48.92 703.35 43.65C703.02 43.43 702.88 43.33 703.12 42.14C702.86 42.34 702.61 42.5 702.39 42.59C702.15 42.68 701.89 42.65 701.68 42.51C699.78 41.18 697.85 39.77 695.96 38.29C695.59 38.01 695.35 37.82 696.29 35.34C695.33 35.96 694.46 36.32 693.82 36.32C693.65 36.32 693.42 36.26 693.28 36.15C691.92 35.03 690.85 34.11 690.07 33.39C689.83 33.16 689.76 32.8 689.91 32.5C690.06 32.2 690.4 32.05 690.72 32.1C693.52 32.64 696.97 28.51 698.03 26.99C698.26 26.65 698.72 26.57 699.06 26.79L720.57 41.22C720.91 41.45 721 41.91 720.78 42.25C719.73 43.89 717.32 48.63 718.82 50.95C719.01 51.23 718.98 51.6 718.76 51.85C718.61 52.02 718.41 52.11 718.19 52.11ZM704.56 42.65C709.87 46.18 714.55 48.69 716.9 49.88C716.52 47.01 718.32 43.49 719.14 42.07L698.82 28.44C697.81 29.73 695.24 32.74 692.44 33.48C692.86 33.85 693.39 34.29 694 34.8C694.59 34.66 695.93 33.98 697.59 32.29C697.84 32.04 698.24 31.99 698.54 32.19C698.84 32.39 698.96 32.78 698.81 33.11C698.13 34.7 697.4 36.6 697.19 37.35C698.83 38.62 700.5 39.85 702.15 41C702.64 40.63 703.45 39.85 703.92 39.19C704.13 38.9 704.52 38.8 704.85 38.95C705.17 39.11 705.34 39.48 705.25 39.83C704.98 40.85 704.68 42.06 704.56 42.65Z" />
			</g>
			<g id="&lt;Group&gt;">
				<path id="&lt;Path&gt;" class="shp7" d="M720.23 43.03C720.09 43.03 719.94 42.98 719.81 42.9C719.47 42.67 719.38 42.2 719.61 41.86L721 39.77C721.61 38.86 721.83 37.77 721.62 36.7C721.41 35.63 720.79 34.7 719.88 34.09L705.92 24.73C705.01 24.12 703.93 23.89 702.85 24.11C701.77 24.32 700.84 24.94 700.24 25.85L698.83 27.93C698.6 28.27 698.14 28.37 697.79 28.14C697.45 27.9 697.36 27.44 697.59 27.09L698.99 25.01C699.82 23.77 701.09 22.93 702.56 22.64C704.01 22.35 705.51 22.65 706.76 23.48L720.72 32.84C721.96 33.68 722.8 34.94 723.09 36.41C723.38 37.88 723.08 39.37 722.25 40.61L720.85 42.69C720.71 42.91 720.47 43.03 720.23 43.03Z" />
			</g>
			<path id="&lt;Compound Path&gt;" fill-rule="evenodd" class="shp7" d="M711.28 27.32L721.66 10.61L726.97 14.17L715.26 29.99L711.28 27.32ZM723.78 15.54C724.19 14.94 724.02 14.12 723.42 13.72C722.82 13.31 722 13.47 721.6 14.08C721.19 14.68 721.35 15.5 721.96 15.9C722.56 16.31 723.38 16.15 723.78 15.54Z" />
		</g>
		<g id="&lt;Group&gt;">
			<g id="&lt;Group&gt;">
				<path id="&lt;Path&gt;" class="shp7" d="M797.62 127.94L785.17 127.94C784.76 127.94 784.42 127.6 784.42 127.19C784.42 126.77 784.76 126.44 785.17 126.44L797.62 126.44C798.03 126.44 798.37 126.77 798.37 127.19C798.37 127.6 798.03 127.94 797.62 127.94Z" />
			</g>
			<g id="&lt;Group&gt;">
				<path id="&lt;Path&gt;" class="shp7" d="M781.13 123.37C780.71 123.37 780.38 123.03 780.38 122.62L780.38 109.58C780.38 103.57 785.27 98.68 791.28 98.68L794.08 98.68C800.09 98.68 804.99 103.57 804.99 109.58L804.99 118.31C804.99 118.72 804.65 119.06 804.24 119.06C803.82 119.06 803.49 118.72 803.49 118.31L803.49 109.58C803.49 104.4 799.26 100.18 794.08 100.18L791.28 100.18C786.1 100.18 781.88 104.4 781.88 109.58L781.88 122.62C781.88 123.03 781.54 123.37 781.13 123.37Z" />
			</g>
			<g id="&lt;Group&gt;">
				<g id="&lt;Group&gt;">
					<path id="&lt;Path&gt;" class="shp7" d="M771.75 123.7C771.33 123.7 771 123.36 771 122.95L771 96.58C771 89.77 776.54 84.23 783.35 84.23C790.16 84.23 795.71 89.77 795.71 96.58L795.71 99.16C795.71 99.57 795.37 99.91 794.96 99.91C794.54 99.91 794.21 99.57 794.21 99.16L794.21 96.58C794.21 90.6 789.34 85.73 783.35 85.73C777.37 85.73 772.5 90.6 772.5 96.58L772.5 122.95C772.5 123.36 772.16 123.7 771.75 123.7Z" />
				</g>
				<g id="&lt;Group&gt;">
					<path id="&lt;Path&gt;" class="shp7" d="M777.05 123.7C776.64 123.7 776.3 123.36 776.3 122.95L776.3 96.58C776.3 92.7 779.47 89.53 783.35 89.53C787.24 89.53 790.4 92.7 790.4 96.58L790.4 99.4C790.4 99.82 790.06 100.15 789.65 100.15C789.24 100.15 788.9 99.82 788.9 99.4L788.9 96.58C788.9 93.52 786.41 91.03 783.35 91.03C780.29 91.03 777.8 93.52 777.8 96.58L777.8 122.95C777.8 123.36 777.47 123.7 777.05 123.7Z" />
				</g>
			</g>
			<g id="&lt;Group&gt;">
				<g id="&lt;Group&gt;">
					<path id="&lt;Compound Path&gt;" fill-rule="evenodd" class="shp7" d="M803.24 131.41C799.44 131.41 796.35 128.32 796.35 124.52C796.35 120.73 799.44 117.64 803.24 117.64C807.03 117.64 810.13 120.73 810.13 124.52C810.13 128.32 807.03 131.41 803.24 131.41ZM803.24 119.14C800.27 119.14 797.85 121.55 797.85 124.52C797.85 127.49 800.27 129.91 803.24 129.91C806.21 129.91 808.63 127.49 808.63 124.52C808.63 121.55 806.21 119.14 803.24 119.14Z" />
				</g>
			</g>
			<g id="&lt;Group&gt;">
				<path id="&lt;Compound Path&gt;" fill-rule="evenodd" class="shp7" d="M784.81 129.18L763.53 129.18C763.12 129.18 762.78 128.84 762.78 128.43L762.78 126.68C762.78 124.45 764.6 122.72 766.92 122.72L781.42 122.72C783.7 122.72 785.56 124.57 785.56 126.86L785.56 128.43C785.56 128.84 785.22 129.18 784.81 129.18ZM764.28 127.68L784.06 127.68L784.06 126.86C784.06 125.4 782.88 124.22 781.42 124.22L766.92 124.22C765.41 124.22 764.28 125.27 764.28 126.68L764.28 127.68Z" />
			</g>
		</g>
		<g id="&lt;Group&gt;">
			<g id="&lt;Group&gt;">
				<path id="&lt;Path&gt;" class="shp7" d="M278.66 268.3L278.15 269.09C277.36 270.31 277.71 271.93 278.92 272.72L285.7 277.12L276.14 290.79L279.61 293.04L288.33 278.83L294.98 283.15C296.2 283.94 297.82 283.59 298.61 282.38L299.13 281.59L278.66 268.3Z" />
				<g id="&lt;Group&gt;">
					<path id="&lt;Path&gt;" class="shp7" d="M300.24 280.17C300.1 280.17 299.95 280.13 299.83 280.05L279.28 266.71C278.96 266.5 278.85 266.07 279.03 265.73L286.92 250.76C287.11 250.4 287.56 250.26 287.93 250.45C288.29 250.64 288.44 251.1 288.24 251.46L280.67 265.82L299.97 278.35L308.56 262.66C308.76 262.29 309.22 262.16 309.58 262.36C309.95 262.56 310.08 263.01 309.88 263.38L300.9 279.78C300.8 279.96 300.63 280.1 300.42 280.15C300.36 280.16 300.3 280.17 300.24 280.17Z" />
				</g>
			</g>
			<path id="&lt;Path&gt;" class="shp24" d="M309.38 295.84L272.38 295.84L272.38 251.11L287.58 251.11L280.04 266.37L300.27 278.93L309.38 263.48L309.38 295.84Z" />
			<g id="&lt;Group&gt;">
				<path id="&lt;Compound Path&gt;" fill-rule="evenodd" class="shp7" d="M309.38 296.59L272.38 296.59C271.97 296.59 271.63 296.25 271.63 295.84L271.63 251.11C271.63 250.7 271.97 250.36 272.38 250.36L309.38 250.36C309.8 250.36 310.13 250.7 310.13 251.11L310.13 295.84C310.13 296.25 309.8 296.59 309.38 296.59ZM273.13 295.09L308.63 295.09L308.63 251.86L273.13 251.86L273.13 295.09Z" />
			</g>
			<path id="&lt;Path&gt;" class="shp7" d="M295.61 262.33L296.73 265.64L300.05 266.77L296.73 267.9L295.61 272.16L294.48 267.9L292.41 266.77L294.48 265.64L295.61 262.33Z" />
			<path id="&lt;Path&gt;" class="shp7" d="M299.82 253.23L300.7 255.82L303.28 256.69L300.7 257.57L299.82 260.88L298.94 257.57L297.34 256.69L298.94 255.82L299.82 253.23Z" />
		</g>
	</g>
</svg>